<svg width="72" height="22" viewBox="0 0 72 22" fill="none" xmlns="http://www.w3.org/2000/svg">
<path d="M5.017 10.879C5.017 14.794 7.975 17.549 12.093 17.549C15.022 17.549 17.313 16.186 18.444 13.982H22.736C21.489 18.535 17.313 21.435 12.093 21.435C5.742 21.435 0.957 16.911 0.957 10.879C0.957 4.76 5.713 0.264999 12.093 0.264999C17.313 0.264999 21.46 3.165 22.736 7.718H18.444C17.342 5.485 15.051 4.151 12.093 4.151C7.946 4.151 5.017 6.877 5.017 10.879ZM27.9793 10.879C27.9793 14.881 30.9083 17.665 34.9973 17.665C38.1003 17.665 40.5073 15.867 41.3193 13.054H34.7943V9.661H46.0173V21H42.3633L42.0443 18.274C40.1303 20.304 37.5493 21.435 34.5043 21.435C28.4433 21.435 23.9193 16.911 23.9193 10.879C23.9193 4.76 28.4723 0.264999 34.7653 0.264999C39.9563 0.264999 44.0163 3.223 45.3213 7.892H41.2613C40.1593 5.485 37.7813 4.006 34.7363 4.006C30.7923 4.006 27.9793 6.848 27.9793 10.879ZM46.6327 21L56.8117 0.699999H61.3357L71.5727 21H67.0487L64.6417 16.215H53.5347L51.1277 21H46.6327ZM55.3907 12.503H62.7567L59.0737 5.195L55.3907 12.503Z" fill="black"/>
</svg>
