<svg width="14" height="15" viewBox="0 0 14 15" fill="none" xmlns="http://www.w3.org/2000/svg">
<path d="M6.5 0.5H4.35078C3.18098 0.5 2.0746 1.03175 1.34383 1.94522C0.797591 2.62801 0.5 3.47638 0.5 4.35078V9.5C0.5 10.4443 0.944583 11.3334 1.7 11.9C2.21929 12.2895 2.85089 12.5 3.5 12.5H4.57295C5.1826 12.5 5.78389 12.6419 6.32918 12.9146L6.875 13.1875C7.28069 13.3903 7.60965 13.7193 7.8125 14.125C7.88975 14.2795 8.11025 14.2795 8.1875 14.125L8.5 13.5C8.80643 12.8871 9.43283 12.5 10.118 12.5H10.3424C10.7712 12.5 11.1904 12.3731 11.5472 12.1352L11.9033 11.8978C12.2972 11.6352 12.6352 11.2972 12.8978 10.9033C13.2905 10.3143 13.5 9.62225 13.5 8.91435V4.35078C13.5 3.47638 13.2024 2.62801 12.6562 1.94522C11.9254 1.03175 10.819 0.5 9.64922 0.5H6.5Z" stroke="black"/>
<circle cx="4" cy="7" r="1" fill="black"/>
<circle cx="7" cy="7" r="1" fill="black"/>
<circle cx="10" cy="7" r="1" fill="black"/>
</svg>
