<svg width="22" height="22" viewBox="0 0 22 22" fill="none" xmlns="http://www.w3.org/2000/svg">
<g clip-path="url(#clip0_283_19)">
<mask id="mask0_283_19" style="mask-type:luminance" maskUnits="userSpaceOnUse" x="0" y="0" width="22" height="22">
<path d="M21.8002 0.200012H0.200195V21.8H21.8002V0.200012Z" fill="white"/>
</mask>
<g mask="url(#mask0_283_19)">
<path d="M9.49289 4.08529C9.87629 2.50489 12.1245 2.50489 12.5079 4.08529C12.5654 4.32271 12.6782 4.5432 12.837 4.72879C12.9959 4.91439 13.1963 5.05986 13.422 5.15337C13.6477 5.24687 13.8923 5.28576 14.1358 5.26688C14.3794 5.24799 14.615 5.17186 14.8236 5.04469C16.2123 4.19869 17.8026 5.78809 16.9566 7.17769C16.8296 7.38619 16.7536 7.6217 16.7347 7.86509C16.7159 8.10848 16.7548 8.35289 16.8481 8.57844C16.9416 8.80398 17.0868 9.00432 17.2722 9.16314C17.4576 9.32194 17.6779 9.4348 17.9151 9.49249C19.4955 9.87589 19.4955 12.1241 17.9151 12.5075C17.6777 12.565 17.4572 12.6778 17.2716 12.8366C17.086 12.9955 16.9405 13.1959 16.8471 13.4216C16.7536 13.6473 16.7146 13.8919 16.7335 14.1354C16.7524 14.379 16.8285 14.6146 16.9557 14.8232C17.8017 16.2119 16.2123 17.8022 14.8227 16.9562C14.6142 16.8292 14.3787 16.7532 14.1353 16.7343C13.8919 16.7155 13.6475 16.7544 13.4219 16.8477C13.1964 16.9412 12.9961 17.0864 12.8372 17.2718C12.6784 17.4572 12.5656 17.6775 12.5079 17.9147C12.1245 19.4951 9.87629 19.4951 9.49289 17.9147C9.43538 17.6773 9.32261 17.4568 9.16375 17.2712C9.00491 17.0856 8.80449 16.9401 8.57881 16.8467C8.35312 16.7532 8.10854 16.7142 7.86498 16.7331C7.62142 16.752 7.38577 16.8281 7.17719 16.9553C5.78849 17.8013 4.19819 16.2119 5.04419 14.8223C5.17118 14.6138 5.24719 14.3783 5.26602 14.1349C5.28487 13.8915 5.24601 13.6471 5.15261 13.4215C5.05922 13.196 4.91392 12.9957 4.72853 12.8368C4.54315 12.678 4.32289 12.5652 4.08569 12.5075C2.50529 12.1241 2.50529 9.87589 4.08569 9.49249C4.32311 9.43498 4.54359 9.32221 4.72919 9.16335C4.91479 9.00451 5.06026 8.80409 5.15377 8.57841C5.24727 8.35273 5.28616 8.10814 5.26727 7.86458C5.24839 7.62102 5.17226 7.38537 5.04509 7.17679C4.19909 5.78809 5.78849 4.19779 7.17809 5.04379C8.07809 5.59099 9.24449 5.10679 9.49289 4.08529Z" stroke="white" stroke-width="1.8" stroke-linecap="round" stroke-linejoin="round"/>
<path d="M10.9998 13.7C12.491 13.7 13.6998 12.4912 13.6998 11C13.6998 9.50879 12.491 8.3 10.9998 8.3C9.50859 8.3 8.2998 9.50879 8.2998 11C8.2998 12.4912 9.50859 13.7 10.9998 13.7Z" stroke="white" stroke-width="1.8" stroke-linecap="round" stroke-linejoin="round"/>
</g>
</g>
<defs>
<clipPath id="clip0_283_19">
<rect width="21.6" height="21.6" fill="white" transform="translate(0.200195 0.200012)"/>
</clipPath>
</defs>
</svg>
