<svg width="22" height="22" viewBox="0 0 22 22" fill="none" xmlns="http://www.w3.org/2000/svg">
<path d="M13.4996 15.5H17.9996L16.7352 14.2356C16.3923 13.8927 16.1996 13.4276 16.1996 12.9426V10.1C16.1996 7.74881 14.697 5.74858 12.5996 5.00727V4.69999C12.5996 3.70588 11.7937 2.89999 10.7996 2.89999C9.80547 2.89999 8.99961 3.70588 8.99961 4.69999V5.00727C6.90227 5.74858 5.39961 7.74881 5.39961 10.1V12.9426C5.39961 13.4276 5.20696 13.8927 4.86405 14.2356L3.59961 15.5H8.09961M13.4996 15.5V16.4C13.4996 17.8912 12.2908 19.1 10.7996 19.1C9.3084 19.1 8.09961 17.8912 8.09961 16.4V15.5M13.4996 15.5H8.09961" stroke="white" stroke-width="1.8" stroke-linecap="round" stroke-linejoin="round"/>
</svg>
