<svg width="22" height="22" viewBox="0 0 22 22" fill="none" xmlns="http://www.w3.org/2000/svg">
<path d="M13.5002 6.49999C14.4943 6.49999 15.3002 7.30588 15.3002 8.29999M18.9002 8.29999C18.9002 11.2823 16.4825 13.7 13.5002 13.7C12.9546 13.7 12.428 13.6191 11.9316 13.4686L9.9002 15.5H8.1002V17.3H6.3002V19.1H3.6002C3.10314 19.1 2.7002 18.6971 2.7002 18.2V15.8728C2.7002 15.6341 2.79502 15.4051 2.9638 15.2364L8.33156 9.8686C8.1811 9.37225 8.1002 8.84555 8.1002 8.29999C8.1002 5.31766 10.5179 2.89999 13.5002 2.89999C16.4825 2.89999 18.9002 5.31766 18.9002 8.29999Z" stroke="white" stroke-width="1.8" stroke-linecap="round" stroke-linejoin="round"/>
</svg>
