<svg width="34" height="34" viewBox="0 0 34 34" fill="none" xmlns="http://www.w3.org/2000/svg">
<circle cx="17" cy="17" r="17" fill="black"/>
<g clip-path="url(#clip0_81_912)">
<mask id="mask0_81_912" style="mask-type:luminance" maskUnits="userSpaceOnUse" x="5" y="5" width="24" height="24">
<path d="M29 5H5V29H29V5Z" fill="white"/>
</mask>
<g mask="url(#mask0_81_912)">
<path d="M15.325 9.317C15.751 7.561 18.249 7.561 18.675 9.317C18.7389 9.5808 18.8642 9.82578 19.0407 10.032C19.2172 10.2382 19.4399 10.3998 19.6907 10.5037C19.9414 10.6076 20.2132 10.6508 20.4838 10.6299C20.7544 10.6089 21.0162 10.5243 21.248 10.383C22.791 9.443 24.558 11.209 23.618 12.753C23.4769 12.9847 23.3924 13.2463 23.3715 13.5168C23.3506 13.7872 23.3938 14.0588 23.4975 14.3094C23.6013 14.56 23.7627 14.7826 23.9687 14.9591C24.1747 15.1355 24.4194 15.2609 24.683 15.325C26.439 15.751 26.439 18.249 24.683 18.675C24.4192 18.7389 24.1742 18.8642 23.968 19.0407C23.7618 19.2172 23.6001 19.4399 23.4963 19.6907C23.3924 19.9414 23.3491 20.2132 23.3701 20.4838C23.3911 20.7544 23.4757 21.0162 23.617 21.248C24.557 22.791 22.791 24.558 21.247 23.618C21.0153 23.4769 20.7537 23.3924 20.4832 23.3715C20.2128 23.3506 19.9412 23.3938 19.6906 23.4975C19.44 23.6013 19.2174 23.7627 19.0409 23.9687C18.8645 24.1747 18.7391 24.4194 18.675 24.683C18.249 26.439 15.751 26.439 15.325 24.683C15.2611 24.4192 15.1358 24.1742 14.9593 23.968C14.7828 23.7618 14.5601 23.6001 14.3094 23.4963C14.0586 23.3924 13.7868 23.3491 13.5162 23.3701C13.2456 23.3911 12.9837 23.4757 12.752 23.617C11.209 24.557 9.442 22.791 10.382 21.247C10.5231 21.0153 10.6075 20.7537 10.6285 20.4832C10.6494 20.2128 10.6062 19.9412 10.5025 19.6906C10.3987 19.44 10.2373 19.2174 10.0313 19.0409C9.82529 18.8645 9.58056 18.7391 9.317 18.675C7.561 18.249 7.561 15.751 9.317 15.325C9.5808 15.2611 9.82578 15.1358 10.032 14.9593C10.2382 14.7828 10.3998 14.5601 10.5037 14.3094C10.6076 14.0586 10.6508 13.7868 10.6299 13.5162C10.6089 13.2456 10.5243 12.9837 10.383 12.752C9.443 11.209 11.209 9.442 12.753 10.382C13.753 10.99 15.049 10.452 15.325 9.317Z" stroke="white" stroke-width="2" stroke-linecap="round" stroke-linejoin="round"/>
<path d="M17 20C18.6569 20 20 18.6569 20 17C20 15.3431 18.6569 14 17 14C15.3431 14 14 15.3431 14 17C14 18.6569 15.3431 20 17 20Z" stroke="white" stroke-width="2" stroke-linecap="round" stroke-linejoin="round"/>
</g>
</g>
<defs>
<clipPath id="clip0_81_912">
<rect width="24" height="24" fill="white" transform="translate(5 5)"/>
</clipPath>
</defs>
</svg>
